<?xml version="1.0" encoding="iso-8859-1"?>
<!-- Uploaded to: SVG Repo, www.svgrepo.com, Generator: SVG Repo Mixer Tools -->
<svg fill="#000000" height="800px" width="800px" version="1.1" id="Layer_1" xmlns="http://www.w3.org/2000/svg" xmlns:xlink="http://www.w3.org/1999/xlink" 
	 viewBox="0 0 512 512" xml:space="preserve">
<g>
	<g>
		<g>
			<path d="M281.6,494.933h-17.067v-239.36c53.12-4.258,110.933-47.249,110.933-101.973c0-24.909-2.782-38.502-5.248-50.492
				c-1.758-8.585-3.285-16-3.285-26.308c0-22.298,6.835-36.548,20.89-43.571c3.533-1.766,5.393-5.743,4.488-9.591
				c-0.913-3.857-4.352-6.571-8.311-6.571c-1.766,0-27.58,0.205-55.74,8.218C321.664,17.195,304.922,0,281.6,0
				c-26.675,0-52.796,8.602-53.897,8.969c-4.463,1.493-6.886,6.315-5.393,10.786c1.493,4.471,6.315,6.886,10.786,5.402
				c0.247-0.077,24.661-8.09,48.503-8.09c12.527,0,22.895,7.97,29.141,14.268c-12.834,5.282-25.25,12.442-35.174,22.366
				c-3.328,3.328-3.328,8.73,0,12.066c3.337,3.328,8.738,3.328,12.066,0c19.029-19.029,50.458-26.615,72.226-29.636
				c-6.639,10.47-9.993,24.064-9.993,40.67c0,12.041,1.766,20.634,3.635,29.739c2.295,11.196,4.898,23.885,4.898,47.061
				c0,47.266-56.021,85.333-102.4,85.333c-46.379,0-102.4-38.067-102.4-85.333c0-17.519,2.338-30.259,4.591-42.581
				c2.031-11.085,3.942-21.572,3.942-34.219c0-17.135-3.558-31.053-10.633-41.651c13.432,1.015,29.952,3.038,42.069,7.074
				c21.299,7.1,96.563,61.372,96.563,154.044c0,4.71,3.823,8.533,8.533,8.533c4.719,0,8.533-3.823,8.533-8.533
				c0-101.129-80.495-160.99-108.228-170.231c-26.607-8.875-69.171-8.969-70.972-8.969c-3.951,0-7.39,2.714-8.303,6.571
				c-0.905,3.849,0.956,7.825,4.489,9.591c14.054,7.023,20.881,21.274,20.881,43.571c0,11.102-1.698,20.395-3.661,31.147
				c-2.287,12.459-4.873,26.581-4.873,45.653c0,54.724,57.822,97.715,110.933,101.973v239.36h-85.333
				c-4.71,0-8.533,3.814-8.533,8.533c0,4.71,3.823,8.533,8.533,8.533H281.6c4.719,0,8.533-3.823,8.533-8.533
				C290.133,498.748,286.319,494.933,281.6,494.933z"/>
			<path d="M128,494.933H8.533c-4.71,0-8.533,3.814-8.533,8.533C0,508.177,3.823,512,8.533,512H128c4.719,0,8.533-3.823,8.533-8.533
				C136.533,498.748,132.719,494.933,128,494.933z"/>
			<path d="M104.883,398.583c26.761,26.769,65.365,28.117,72.832,28.117l44.151-0.017c0.452,0,0.845-0.188,1.271-0.256
				c0.674-0.102,1.357-0.136,1.988-0.401c1.05-0.435,1.997-1.058,2.782-1.843c0-0.009,0.009-0.009,0.009-0.009
				c0.222-0.222,0.307-0.503,0.495-0.742c0.503-0.631,1.015-1.254,1.331-2.005c0.452-1.075,0.674-2.219,0.657-3.379l-0.009-42.223
				c0.077-1.826,1.442-45.039-28.151-74.641c-26.76-26.786-65.374-28.143-72.841-28.143l-44.066,0.026
				c-4.71,0-8.533,3.814-8.533,8.533l0.009,42.334C76.74,325.751,75.298,368.973,104.883,398.583z M93.867,324.284v-34.15
				l35.533-0.026c6.289,0,38.758,1.118,60.774,23.142c24.218,24.226,23.185,61.534,23.159,62.234v22.042L125.5,309.7
				c-3.328-3.336-8.73-3.336-12.066,0c-3.328,3.328-3.328,8.73,0,12.066l87.868,87.859l-23.586,0.009
				c-6.289,0-38.758-1.109-60.757-23.117C92.757,362.3,93.85,324.992,93.867,324.284z"/>
			<path d="M334.234,392.567c7.467,0,46.08-1.348,72.858-28.117c29.602-29.611,28.16-72.832,28.092-74.3v-42.667
				c0-4.71-3.814-8.533-8.533-8.533l-42.308,0.009l-1.801-0.026c-7.467,0-46.097,1.348-72.858,28.117
				c-29.619,29.611-28.151,72.832-28.083,74.3v42.598c-0.009,1.152,0.213,2.304,0.674,3.388c0.043,0.102,0.145,0.188,0.196,0.29
				c0.41,0.87,0.896,1.724,1.613,2.44c0.683,0.674,1.485,1.118,2.304,1.519c0.162,0.085,0.273,0.23,0.435,0.29
				c1.058,0.452,2.176,0.683,3.294,0.683c0.026,0,0.043-0.009,0.068-0.009l42.249-0.009L334.234,392.567z M398.566,275.584
				c-3.328-3.336-8.73-3.336-12.066,0l-87.834,87.834l-0.009-22.426c-0.009-0.375-1.289-37.495,23.1-61.875
				C343.757,257.109,376.252,256,382.541,256l35.575,0.017l0.009,34.475c0.017,0.367,1.109,37.675-23.108,61.892
				c-22.007,22.007-54.494,23.117-60.783,23.117l-23.501-0.009l87.834-87.842C401.903,284.314,401.903,278.921,398.566,275.584z"/>
			<path d="M503.467,494.933H366.933c-4.71,0-8.533,3.814-8.533,8.533c0,4.71,3.823,8.533,8.533,8.533h136.533
				c4.719,0,8.533-3.823,8.533-8.533C512,498.748,508.186,494.933,503.467,494.933z"/>
			<path d="M332.8,494.933h-17.067c-4.71,0-8.533,3.814-8.533,8.533c0,4.71,3.823,8.533,8.533,8.533H332.8
				c4.719,0,8.533-3.823,8.533-8.533C341.333,498.748,337.519,494.933,332.8,494.933z"/>
		</g>
	</g>
</g>
</svg>